<svg width="142" height="44" viewBox="0 0 142 44" fill="none" xmlns="http://www.w3.org/2000/svg">
<rect width="142" height="44" rx="22" fill="#0065FE"/>
<path d="M47.348 26.208C46.2707 26.208 45.3533 25.9627 44.596 25.472C43.8493 24.9813 43.3267 24.3093 43.028 23.456L44.612 22.528C45.06 23.7867 45.988 24.416 47.396 24.416C48.0893 24.416 48.6067 24.2827 48.948 24.016C49.3 23.7387 49.476 23.3813 49.476 22.944C49.476 22.4853 49.2893 22.1387 48.916 21.904C48.5427 21.6587 47.8813 21.392 46.932 21.104C46.3987 20.944 45.9667 20.7947 45.636 20.656C45.3053 20.5173 44.9533 20.3253 44.58 20.08C44.2173 19.824 43.9453 19.5093 43.764 19.136C43.5827 18.7627 43.492 18.3253 43.492 17.824C43.492 16.832 43.844 16.048 44.548 15.472C45.252 14.8853 46.1 14.592 47.092 14.592C47.988 14.592 48.772 14.8107 49.444 15.248C50.116 15.6853 50.6333 16.288 50.996 17.056L49.444 17.952C48.9747 16.9067 48.1907 16.384 47.092 16.384C46.5587 16.384 46.132 16.512 45.812 16.768C45.492 17.0133 45.332 17.3493 45.332 17.776C45.332 18.192 45.492 18.5227 45.812 18.768C46.1427 19.0027 46.7347 19.2533 47.588 19.52C48.0147 19.6587 48.324 19.7653 48.516 19.84C48.7187 19.904 48.996 20.0107 49.348 20.16C49.7107 20.3093 49.9827 20.4587 50.164 20.608C50.3453 20.7573 50.5373 20.944 50.74 21.168C50.9533 21.392 51.1027 21.648 51.188 21.936C51.2733 22.224 51.316 22.5493 51.316 22.912C51.316 23.9253 50.948 24.7307 50.212 25.328C49.4867 25.9147 48.532 26.208 47.348 26.208ZM54.4369 16.48C54.2235 16.6933 53.9675 16.8 53.6689 16.8C53.3702 16.8 53.1089 16.6933 52.8849 16.48C52.6715 16.256 52.5649 15.9947 52.5649 15.696C52.5649 15.3973 52.6715 15.1413 52.8849 14.928C53.0982 14.704 53.3595 14.592 53.6689 14.592C53.9782 14.592 54.2395 14.704 54.4529 14.928C54.6662 15.1413 54.7729 15.3973 54.7729 15.696C54.7729 15.9947 54.6609 16.256 54.4369 16.48ZM52.8049 26V18H54.5329V26H52.8049ZM62.9073 18H64.6033V25.632C64.6033 26.848 64.2033 27.7813 63.4033 28.432C62.6033 29.0827 61.6326 29.408 60.4913 29.408C58.6459 29.408 57.3819 28.7627 56.6993 27.472L58.1873 26.608C58.6033 27.4293 59.3819 27.84 60.5233 27.84C61.2699 27.84 61.8513 27.6427 62.2673 27.248C62.6939 26.864 62.9073 26.3253 62.9073 25.632V24.656C62.2566 25.584 61.3286 26.048 60.1233 26.048C58.9926 26.048 58.0379 25.648 57.2593 24.848C56.4806 24.0373 56.0913 23.0613 56.0913 21.92C56.0913 20.7787 56.4806 19.808 57.2593 19.008C58.0379 18.1973 58.9926 17.792 60.1233 17.792C61.3286 17.792 62.2566 18.256 62.9073 19.184V18ZM58.5393 23.712C59.0299 24.192 59.6379 24.432 60.3633 24.432C61.0886 24.432 61.6913 24.192 62.1713 23.712C62.6619 23.232 62.9073 22.6347 62.9073 21.92C62.9073 21.2053 62.6619 20.608 62.1713 20.128C61.6913 19.648 61.0886 19.408 60.3633 19.408C59.6379 19.408 59.0299 19.648 58.5393 20.128C58.0593 20.608 57.8193 21.2053 57.8193 21.92C57.8193 22.6347 58.0593 23.232 58.5393 23.712ZM70.8254 17.792C71.7427 17.792 72.484 18.0853 73.0494 18.672C73.6147 19.2587 73.8974 20.064 73.8974 21.088V26H72.1694V21.264C72.1694 20.6667 72.0094 20.208 71.6894 19.888C71.3694 19.568 70.932 19.408 70.3774 19.408C69.7694 19.408 69.2787 19.6 68.9054 19.984C68.532 20.3573 68.3454 20.9333 68.3454 21.712V26H66.6174V18H68.3454V19.024C68.868 18.2027 69.6947 17.792 70.8254 17.792ZM87.054 25.152C86.2647 25.856 85.246 26.208 83.998 26.208C82.75 26.208 81.7313 25.856 80.942 25.152C80.1527 24.4373 79.758 23.4827 79.758 22.288V14.8H81.598V22.176C81.598 22.8587 81.7953 23.4027 82.19 23.808C82.5953 24.2133 83.198 24.416 83.998 24.416C84.798 24.416 85.3953 24.2133 85.79 23.808C86.1953 23.4027 86.398 22.8587 86.398 22.176V14.8H88.238V22.288C88.238 23.4827 87.8433 24.4373 87.054 25.152ZM94.7704 17.792C95.869 17.792 96.8077 18.2027 97.5864 19.024C98.365 19.8347 98.7544 20.8267 98.7544 22C98.7544 23.184 98.365 24.1813 97.5864 24.992C96.8077 25.8027 95.869 26.208 94.7704 26.208C93.5544 26.208 92.621 25.76 91.9704 24.864V29.2H90.2424V18H91.9704V19.152C92.621 18.2453 93.5544 17.792 94.7704 17.792ZM92.6904 23.84C93.1704 24.32 93.773 24.56 94.4984 24.56C95.2237 24.56 95.8264 24.32 96.3064 23.84C96.7864 23.3493 97.0264 22.736 97.0264 22C97.0264 21.264 96.7864 20.656 96.3064 20.176C95.8264 19.6853 95.2237 19.44 94.4984 19.44C93.773 19.44 93.1704 19.6853 92.6904 20.176C92.2104 20.656 91.9704 21.264 91.9704 22C91.9704 22.736 92.2104 23.3493 92.6904 23.84Z" fill="white"/>
</svg>
