<svg width="200" height="48" viewBox="0 0 200 48" fill="none" xmlns="http://www.w3.org/2000/svg">
<rect width="200" height="48" rx="24" fill="#0065FE"/>
<path d="M54.348 28.208C53.2707 28.208 52.3533 27.9627 51.596 27.472C50.8493 26.9813 50.3267 26.3093 50.028 25.456L51.612 24.528C52.06 25.7867 52.988 26.416 54.396 26.416C55.0893 26.416 55.6067 26.2827 55.948 26.016C56.3 25.7387 56.476 25.3813 56.476 24.944C56.476 24.4853 56.2893 24.1387 55.916 23.904C55.5427 23.6587 54.8813 23.392 53.932 23.104C53.3987 22.944 52.9667 22.7947 52.636 22.656C52.3053 22.5173 51.9533 22.3253 51.58 22.08C51.2173 21.824 50.9453 21.5093 50.764 21.136C50.5827 20.7627 50.492 20.3253 50.492 19.824C50.492 18.832 50.844 18.048 51.548 17.472C52.252 16.8853 53.1 16.592 54.092 16.592C54.988 16.592 55.772 16.8107 56.444 17.248C57.116 17.6853 57.6333 18.288 57.996 19.056L56.444 19.952C55.9747 18.9067 55.1907 18.384 54.092 18.384C53.5587 18.384 53.132 18.512 52.812 18.768C52.492 19.0133 52.332 19.3493 52.332 19.776C52.332 20.192 52.492 20.5227 52.812 20.768C53.1427 21.0027 53.7347 21.2533 54.588 21.52C55.0147 21.6587 55.324 21.7653 55.516 21.84C55.7187 21.904 55.996 22.0107 56.348 22.16C56.7107 22.3093 56.9827 22.4587 57.164 22.608C57.3453 22.7573 57.5373 22.944 57.74 23.168C57.9533 23.392 58.1027 23.648 58.188 23.936C58.2733 24.224 58.316 24.5493 58.316 24.912C58.316 25.9253 57.948 26.7307 57.212 27.328C56.4867 27.9147 55.532 28.208 54.348 28.208ZM61.368 24.736C61.496 25.344 61.7893 25.8133 62.248 26.144C62.7067 26.464 63.2667 26.624 63.928 26.624C64.8453 26.624 65.5333 26.2933 65.992 25.632L67.416 26.464C66.6267 27.6267 65.4587 28.208 63.912 28.208C62.6107 28.208 61.56 27.8133 60.76 27.024C59.96 26.224 59.56 25.216 59.56 24C59.56 22.8053 59.9547 21.808 60.744 21.008C61.5333 20.1973 62.5467 19.792 63.784 19.792C64.9573 19.792 65.9173 20.2027 66.664 21.024C67.4213 21.8453 67.8 22.8427 67.8 24.016C67.8 24.1973 67.7787 24.4373 67.736 24.736H61.368ZM61.352 23.328H66.056C65.9387 22.6773 65.6667 22.1867 65.24 21.856C64.824 21.5253 64.3333 21.36 63.768 21.36C63.128 21.36 62.5947 21.536 62.168 21.888C61.7413 22.24 61.4693 22.72 61.352 23.328ZM69.3205 28V16.32H71.0485V28H69.3205ZM74.4149 24.736C74.5429 25.344 74.8362 25.8133 75.2949 26.144C75.7535 26.464 76.3135 26.624 76.9749 26.624C77.8922 26.624 78.5802 26.2933 79.0389 25.632L80.4629 26.464C79.6735 27.6267 78.5055 28.208 76.9589 28.208C75.6575 28.208 74.6069 27.8133 73.8069 27.024C73.0069 26.224 72.6069 25.216 72.6069 24C72.6069 22.8053 73.0015 21.808 73.7909 21.008C74.5802 20.1973 75.5935 19.792 76.8309 19.792C78.0042 19.792 78.9642 20.2027 79.7109 21.024C80.4682 21.8453 80.8469 22.8427 80.8469 24.016C80.8469 24.1973 80.8255 24.4373 80.7829 24.736H74.4149ZM74.3989 23.328H79.1029C78.9855 22.6773 78.7135 22.1867 78.2869 21.856C77.8709 21.5253 77.3802 21.36 76.8149 21.36C76.1749 21.36 75.6415 21.536 75.2149 21.888C74.7882 22.24 74.5162 22.72 74.3989 23.328ZM86.0965 28.208C84.8912 28.208 83.8832 27.8027 83.0725 26.992C82.2725 26.1813 81.8725 25.184 81.8725 24C81.8725 22.8053 82.2725 21.808 83.0725 21.008C83.8832 20.1973 84.8912 19.792 86.0965 19.792C86.8752 19.792 87.5845 19.9787 88.2245 20.352C88.8645 20.7253 89.3445 21.2267 89.6645 21.856L88.1765 22.72C87.9952 22.336 87.7178 22.0373 87.3445 21.824C86.9818 21.6 86.5605 21.488 86.0805 21.488C85.3765 21.488 84.7845 21.728 84.3045 22.208C83.8352 22.688 83.6005 23.2853 83.6005 24C83.6005 24.7147 83.8352 25.312 84.3045 25.792C84.7845 26.272 85.3765 26.512 86.0805 26.512C86.5498 26.512 86.9712 26.4 87.3445 26.176C87.7285 25.952 88.0165 25.6533 88.2085 25.28L89.6965 26.128C89.3552 26.768 88.8645 27.2747 88.2245 27.648C87.5845 28.0213 86.8752 28.208 86.0965 28.208ZM95.4095 21.664H93.4255V25.504C93.4255 25.8347 93.5002 26.0747 93.6495 26.224C93.7988 26.3627 94.0175 26.4427 94.3055 26.464C94.6042 26.4747 94.9722 26.4693 95.4095 26.448V28C94.0868 28.16 93.1375 28.048 92.5615 27.664C91.9855 27.2693 91.6975 26.5493 91.6975 25.504V21.664H90.2255V20H91.6975V18.272L93.4255 17.76V20H95.4095V21.664ZM105.295 16.8C106.351 16.8 107.231 17.152 107.935 17.856C108.65 18.56 109.007 19.4347 109.007 20.48C109.007 21.5147 108.65 22.3893 107.935 23.104C107.231 23.808 106.351 24.16 105.295 24.16H103.007V28H101.167V16.8H105.295ZM105.295 22.432C105.839 22.432 106.287 22.2507 106.639 21.888C106.991 21.5147 107.167 21.0453 107.167 20.48C107.167 19.9147 106.991 19.4507 106.639 19.088C106.287 18.7147 105.839 18.528 105.295 18.528H103.007V22.432H105.295ZM112.064 21.344C112.501 20.352 113.323 19.856 114.528 19.856V21.728C113.867 21.6853 113.291 21.8453 112.8 22.208C112.309 22.56 112.064 23.1467 112.064 23.968V28H110.336V20H112.064V21.344ZM117.437 18.48C117.224 18.6933 116.968 18.8 116.669 18.8C116.37 18.8 116.109 18.6933 115.885 18.48C115.672 18.256 115.565 17.9947 115.565 17.696C115.565 17.3973 115.672 17.1413 115.885 16.928C116.098 16.704 116.36 16.592 116.669 16.592C116.978 16.592 117.24 16.704 117.453 16.928C117.666 17.1413 117.773 17.3973 117.773 17.696C117.773 17.9947 117.661 18.256 117.437 18.48ZM115.805 28V20H117.533V28H115.805ZM123.315 28.208C122.11 28.208 121.102 27.8027 120.291 26.992C119.491 26.1813 119.091 25.184 119.091 24C119.091 22.8053 119.491 21.808 120.291 21.008C121.102 20.1973 122.11 19.792 123.315 19.792C124.094 19.792 124.803 19.9787 125.443 20.352C126.083 20.7253 126.563 21.2267 126.883 21.856L125.395 22.72C125.214 22.336 124.937 22.0373 124.563 21.824C124.201 21.6 123.779 21.488 123.299 21.488C122.595 21.488 122.003 21.728 121.523 22.208C121.054 22.688 120.819 23.2853 120.819 24C120.819 24.7147 121.054 25.312 121.523 25.792C122.003 26.272 122.595 26.512 123.299 26.512C123.769 26.512 124.19 26.4 124.563 26.176C124.947 25.952 125.235 25.6533 125.427 25.28L126.915 26.128C126.574 26.768 126.083 27.2747 125.443 27.648C124.803 28.0213 124.094 28.208 123.315 28.208ZM129.796 18.48C129.583 18.6933 129.327 18.8 129.028 18.8C128.73 18.8 128.468 18.6933 128.244 18.48C128.031 18.256 127.924 17.9947 127.924 17.696C127.924 17.3973 128.031 17.1413 128.244 16.928C128.458 16.704 128.719 16.592 129.028 16.592C129.338 16.592 129.599 16.704 129.812 16.928C130.026 17.1413 130.132 17.3973 130.132 17.696C130.132 17.9947 130.02 18.256 129.796 18.48ZM128.164 28V20H129.892V28H128.164ZM136.107 19.792C137.024 19.792 137.765 20.0853 138.331 20.672C138.896 21.2587 139.179 22.064 139.179 23.088V28H137.451V23.264C137.451 22.6667 137.291 22.208 136.971 21.888C136.651 21.568 136.213 21.408 135.659 21.408C135.051 21.408 134.56 21.6 134.187 21.984C133.813 22.3573 133.627 22.9333 133.627 23.712V28H131.899V20H133.627V21.024C134.149 20.2027 134.976 19.792 136.107 19.792ZM147.407 20H149.103V27.632C149.103 28.848 148.703 29.7813 147.903 30.432C147.103 31.0827 146.133 31.408 144.991 31.408C143.146 31.408 141.882 30.7627 141.199 29.472L142.687 28.608C143.103 29.4293 143.882 29.84 145.023 29.84C145.77 29.84 146.351 29.6427 146.767 29.248C147.194 28.864 147.407 28.3253 147.407 27.632V26.656C146.757 27.584 145.829 28.048 144.623 28.048C143.493 28.048 142.538 27.648 141.759 26.848C140.981 26.0373 140.591 25.0613 140.591 23.92C140.591 22.7787 140.981 21.808 141.759 21.008C142.538 20.1973 143.493 19.792 144.623 19.792C145.829 19.792 146.757 20.256 147.407 21.184V20ZM143.039 25.712C143.53 26.192 144.138 26.432 144.863 26.432C145.589 26.432 146.191 26.192 146.671 25.712C147.162 25.232 147.407 24.6347 147.407 23.92C147.407 23.2053 147.162 22.608 146.671 22.128C146.191 21.648 145.589 21.408 144.863 21.408C144.138 21.408 143.53 21.648 143.039 22.128C142.559 22.608 142.319 23.2053 142.319 23.92C142.319 24.6347 142.559 25.232 143.039 25.712Z" fill="white"/>
</svg>
